<svg width="352" height="199" viewBox="0 0 352 199" fill="none" xmlns="http://www.w3.org/2000/svg">
<path d="M154.321 173H6V199H350V156V113H261.923C258.609 113 255.923 115.686 255.923 119V127C255.923 130.314 253.237 133 249.923 133H216.102C212.788 133 210.102 135.686 210.102 139V147C210.102 150.314 207.416 153 204.102 153H166.321C163.007 153 160.321 155.686 160.321 159V167C160.321 170.314 157.635 173 154.321 173Z" fill="url(#paint0_linear)"/>
<path d="M71.208 49.112C77.5867 49.112 82.6467 51.044 86.388 54.908C90.1907 58.772 92.092 64.1387 92.092 71.008V101H76.452V73.124C76.452 69.812 75.5627 67.2667 73.784 65.488C72.0667 63.648 69.6747 62.728 66.608 62.728C63.5413 62.728 61.1187 63.648 59.34 65.488C57.6227 67.2667 56.764 69.812 56.764 73.124V101H41.124V73.124C41.124 69.812 40.2347 67.2667 38.456 65.488C36.7387 63.648 34.3467 62.728 31.28 62.728C28.2133 62.728 25.7907 63.648 24.012 65.488C22.2947 67.2667 21.436 69.812 21.436 73.124V101H5.704V49.664H21.436V56.104C23.0307 53.9573 25.116 52.2707 27.692 51.044C30.268 49.756 33.1813 49.112 36.432 49.112C40.296 49.112 43.7307 49.94 46.736 51.596C49.8027 53.252 52.1947 55.6133 53.912 58.68C55.6907 55.8587 58.1133 53.5587 61.18 51.78C64.2467 50.0013 67.5893 49.112 71.208 49.112ZM151.487 74.504C151.487 75.976 151.395 77.5093 151.211 79.104H115.607C115.852 82.2933 116.864 84.7467 118.643 86.464C120.483 88.12 122.721 88.948 125.359 88.948C129.284 88.948 132.013 87.292 133.547 83.98H150.291C149.432 87.3533 147.868 90.3893 145.599 93.088C143.391 95.7867 140.6 97.9027 137.227 99.436C133.853 100.969 130.081 101.736 125.911 101.736C120.881 101.736 116.404 100.663 112.479 98.516C108.553 96.3693 105.487 93.3027 103.279 89.316C101.071 85.3293 99.9666 80.668 99.9666 75.332C99.9666 69.996 101.04 65.3347 103.187 61.348C105.395 57.3613 108.461 54.2947 112.387 52.148C116.312 50.0013 120.82 48.928 125.911 48.928C130.879 48.928 135.295 49.9707 139.159 52.056C143.023 54.1413 146.028 57.116 148.175 60.98C150.383 64.844 151.487 69.352 151.487 74.504ZM135.387 70.364C135.387 67.6653 134.467 65.5187 132.627 63.924C130.787 62.3293 128.487 61.532 125.727 61.532C123.089 61.532 120.851 62.2987 119.011 63.832C117.232 65.3653 116.128 67.5427 115.699 70.364H135.387ZM191.066 49.112C197.077 49.112 201.861 51.0747 205.418 55C209.037 58.864 210.846 64.2 210.846 71.008V101H195.206V73.124C195.206 69.6893 194.317 67.0213 192.538 65.12C190.759 63.2187 188.367 62.268 185.362 62.268C182.357 62.268 179.965 63.2187 178.186 65.12C176.407 67.0213 175.518 69.6893 175.518 73.124V101H159.786V49.664H175.518V56.472C177.113 54.2027 179.259 52.424 181.958 51.136C184.657 49.7867 187.693 49.112 191.066 49.112ZM250.39 87.66V101H242.386C236.682 101 232.236 99.62 229.046 96.86C225.857 94.0387 224.262 89.4693 224.262 83.152V62.728H218.006V49.664H224.262V37.152H239.994V49.664H250.298V62.728H239.994V83.336C239.994 84.8693 240.362 85.9733 241.098 86.648C241.834 87.3227 243.061 87.66 244.778 87.66H250.39ZM282.521 101.736C277.492 101.736 272.953 100.663 268.905 98.516C264.919 96.3693 261.76 93.3027 259.429 89.316C257.16 85.3293 256.025 80.668 256.025 75.332C256.025 70.0573 257.191 65.4267 259.521 61.44C261.852 57.392 265.041 54.2947 269.089 52.148C273.137 50.0013 277.676 48.928 282.705 48.928C287.735 48.928 292.273 50.0013 296.321 52.148C300.369 54.2947 303.559 57.392 305.889 61.44C308.22 65.4267 309.385 70.0573 309.385 75.332C309.385 80.6067 308.189 85.268 305.797 89.316C303.467 93.3027 300.247 96.3693 296.137 98.516C292.089 100.663 287.551 101.736 282.521 101.736ZM282.521 88.12C285.527 88.12 288.072 87.016 290.157 84.808C292.304 82.6 293.377 79.4413 293.377 75.332C293.377 71.2227 292.335 68.064 290.249 65.856C288.225 63.648 285.711 62.544 282.705 62.544C279.639 62.544 277.093 63.648 275.069 65.856C273.045 68.0027 272.033 71.1613 272.033 75.332C272.033 79.4413 273.015 82.6 274.977 84.808C277.001 87.016 279.516 88.12 282.521 88.12ZM333.463 58.22C335.303 55.3987 337.603 53.1907 340.363 51.596C343.123 49.94 346.19 49.112 349.563 49.112V65.764H345.239C341.314 65.764 338.37 66.6227 336.407 68.34C334.445 69.996 333.463 72.94 333.463 77.172V101H317.731V49.664H333.463V58.22Z" fill="black"/>
<path d="M71.208 110.112C77.5867 110.112 82.6467 112.044 86.388 115.908C90.1907 119.772 92.092 125.139 92.092 132.008V162H76.452V134.124C76.452 130.812 75.5627 128.267 73.784 126.488C72.0667 124.648 69.6747 123.728 66.608 123.728C63.5413 123.728 61.1187 124.648 59.34 126.488C57.6227 128.267 56.764 130.812 56.764 134.124V162H41.124V134.124C41.124 130.812 40.2347 128.267 38.456 126.488C36.7387 124.648 34.3467 123.728 31.28 123.728C28.2133 123.728 25.7907 124.648 24.012 126.488C22.2947 128.267 21.436 130.812 21.436 134.124V162H5.704V110.664H21.436V117.104C23.0307 114.957 25.116 113.271 27.692 112.044C30.268 110.756 33.1813 110.112 36.432 110.112C40.296 110.112 43.7307 110.94 46.736 112.596C49.8027 114.252 52.1947 116.613 53.912 119.68C55.6907 116.859 58.1133 114.559 61.18 112.78C64.2467 111.001 67.5893 110.112 71.208 110.112ZM151.487 135.504C151.487 136.976 151.395 138.509 151.211 140.104H115.607C115.852 143.293 116.864 145.747 118.643 147.464C120.483 149.12 122.721 149.948 125.359 149.948C129.284 149.948 132.013 148.292 133.547 144.98H150.291C149.432 148.353 147.868 151.389 145.599 154.088C143.391 156.787 140.6 158.903 137.227 160.436C133.853 161.969 130.081 162.736 125.911 162.736C120.881 162.736 116.404 161.663 112.479 159.516C108.553 157.369 105.487 154.303 103.279 150.316C101.071 146.329 99.9666 141.668 99.9666 136.332C99.9666 130.996 101.04 126.335 103.187 122.348C105.395 118.361 108.461 115.295 112.387 113.148C116.312 111.001 120.82 109.928 125.911 109.928C130.879 109.928 135.295 110.971 139.159 113.056C143.023 115.141 146.028 118.116 148.175 121.98C150.383 125.844 151.487 130.352 151.487 135.504ZM135.387 131.364C135.387 128.665 134.467 126.519 132.627 124.924C130.787 123.329 128.487 122.532 125.727 122.532C123.089 122.532 120.851 123.299 119.011 124.832C117.232 126.365 116.128 128.543 115.699 131.364H135.387Z" fill="black"/>
<defs>
<linearGradient id="paint0_linear" x1="77.6594" y1="177.5" x2="-137.206" y2="184.745" gradientUnits="userSpaceOnUse">
<stop stop-color="#6BDFFF"/>
<stop offset="1" stop-color="#6BDFFF" stop-opacity="0"/>
<stop offset="1" stop-color="#6BDFFF" stop-opacity="0.527564"/>
</linearGradient>
</defs>
</svg>
